<svg width="86" height="18" viewBox="0 0 86 18" fill="none" xmlns="http://www.w3.org/2000/svg">
<g id="MegaMart">
<path d="M10.2278 0.0760296L6.71553 9.62724L3.20322 0.0760296H0V13.5048H2.28534V3.47835L5.56349 12.3358H7.86757L11.1457 3.47835V13.5048H13.4311V0.0760296H10.2278Z" fill="#008ECC"/>
<path d="M20.3526 13.6948C21.9262 13.6948 23.1719 13.1341 24.1928 11.9842L22.6193 10.5871C21.9636 11.3284 21.2143 11.5945 20.3714 11.5945C18.9009 11.5945 18.2265 10.7582 18.0298 9.5132H24.455C24.5019 9.38015 24.5393 8.9905 24.5393 8.60085C24.5393 6.48152 23.4809 3.81098 20.2028 3.81098C17.037 3.81098 15.6134 6.31996 15.6134 8.79092C15.6134 11.3474 17.1307 13.6948 20.3526 13.6948ZM18.0298 7.84055C18.2453 6.65259 18.8353 5.75924 20.1841 5.75924C21.1769 5.75924 21.9824 6.26294 22.2165 7.24182C22.2727 7.43189 22.2914 7.63147 22.2914 7.84055H18.0298Z" fill="#008ECC"/>
<path d="M30.7584 12.0222C29.0913 11.8131 27.9392 11.7941 27.9392 11.0148C27.9392 10.7962 28.0235 10.6346 28.2108 10.5111C28.7447 10.7487 29.3442 10.8817 29.9904 10.8817C32.0416 10.8817 33.7931 9.53221 33.7931 7.41288C33.7931 6.79514 33.6526 6.23442 33.3903 5.75924L34.7484 4.64731L33.5589 3.17423L32.1259 4.41922C31.4984 4.02957 30.7303 3.81098 29.9155 3.81098C27.8456 3.81098 26.0754 5.23654 26.0754 7.29884C26.0754 8.13516 26.3657 8.88596 26.8528 9.48469C26.3002 9.97888 25.9817 10.5871 25.9817 11.4234C25.9817 12.3358 26.3563 12.906 26.8996 13.2767L25.8131 14.208C25.7944 14.3031 25.7756 14.3981 25.7756 14.6167C25.7756 16.5649 27.3117 18 30.262 18C32.5848 18 34.4019 16.9736 34.4019 14.8258C34.4019 12.6494 32.5286 12.2598 30.7584 12.0222ZM29.9904 5.60718C30.9926 5.60718 31.5265 6.31996 31.5265 7.31785C31.5265 8.28722 31.0113 8.9905 29.9904 8.9905C28.9789 8.9905 28.4356 8.28722 28.4356 7.31785C28.4356 6.31996 28.9976 5.60718 29.9904 5.60718ZM30.2433 16.2133C29.11 16.2133 28.1359 15.8807 27.8643 14.9303L27.8081 14.6737L28.3139 13.8184C28.8852 13.9324 29.4659 13.9799 29.953 14.0275C31.5077 14.189 32.2383 14.3601 32.2383 15.0824C32.2383 15.8427 31.4515 16.2133 30.2433 16.2133Z" fill="#008ECC"/>
<path d="M39.675 3.81098C37.8299 3.81098 36.6404 4.64731 35.7412 5.89229L37.4927 7.17529C37.8954 6.48152 38.6166 5.83527 39.6937 5.83527C41.183 5.83527 41.5951 6.434 41.6419 7.84055H39.1037C37.0057 7.84055 35.376 8.52482 35.376 10.5871C35.376 12.5734 36.8558 13.6948 38.7759 13.6948C39.8436 13.6948 41.0893 13.2196 41.6981 12.2408L41.8386 13.5048H43.7212V7.74551C43.7212 5.42661 42.2226 3.81098 39.675 3.81098ZM39.2348 11.7371C38.2139 11.7371 37.7175 11.2904 37.7175 10.6631C37.7175 10.0644 38.1952 9.5132 39.2348 9.5132H41.6513V9.58923C41.5108 10.7107 40.6397 11.7371 39.2348 11.7371Z" fill="#008ECC"/>
<path d="M56.7401 0.0760296L53.2278 9.62724L49.7155 0.0760296H46.5123V13.5048H48.7976V3.47835L52.0758 12.3358H54.3799L57.658 3.47835V13.5048H59.9434V0.0760296H56.7401Z" fill="#008ECC"/>
<path d="M66.4247 3.81098C64.5796 3.81098 63.3901 4.64731 62.491 5.89229L64.2424 7.17529C64.6452 6.48152 65.3664 5.83527 66.4435 5.83527C67.9327 5.83527 68.3448 6.434 68.3916 7.84055H65.8534C63.7554 7.84055 62.1257 8.52482 62.1257 10.5871C62.1257 12.5734 63.6055 13.6948 65.5256 13.6948C66.5933 13.6948 67.839 13.2196 68.4478 12.2408L68.5883 13.5048H70.4709V7.74551C70.4709 5.42661 68.9723 3.81098 66.4247 3.81098ZM65.9845 11.7371C64.9636 11.7371 64.4672 11.2904 64.4672 10.6631C64.4672 10.0644 64.9449 9.5132 65.9845 9.5132H68.401V9.58923C68.2605 10.7107 67.3895 11.7371 65.9845 11.7371Z" fill="#008ECC"/>
<path d="M72.9155 13.5048H75.1259V9.49419C75.1259 7.08025 76.2405 6.07286 77.3082 6.07286C77.6735 6.07286 78.02 6.18691 78.3291 6.39599L79.3688 4.49525C78.9192 4.02957 78.2729 3.81098 77.6548 3.81098C76.6058 3.81098 75.5474 4.45723 75.1446 5.60718V4.01056H72.9155V13.5048Z" fill="#008ECC"/>
<path d="M84.2954 13.6948C84.9791 13.6948 85.6535 13.5428 86 13.4097V11.3094C85.6909 11.4615 85.1758 11.6515 84.6981 11.6515C84.0987 11.6515 83.6585 11.3854 83.6585 10.4731V5.94931H86V4.01056H83.6585V0L81.4106 1.65364V4.01056H79.8652V5.94931H81.3731V10.8817C81.3731 12.6114 82.469 13.6948 84.2954 13.6948Z" fill="#008ECC"/>
</g>
</svg>
